<svg width="15" height="15" viewBox="0 0 15 15" fill="none" xmlns="http://www.w3.org/2000/svg">
<path d="M14.8167 8.03059L9.19189 14.7802C9.07462 14.9209 8.91556 15 8.74971 15C8.58387 15 8.42481 14.9209 8.30754 14.7802C8.19027 14.6395 8.12439 14.4486 8.12439 14.2496C8.12439 14.0506 8.19027 13.8598 8.30754 13.719L12.866 8.24996H0.62498C0.459225 8.24996 0.300259 8.17095 0.183052 8.0303C0.065846 7.88966 0 7.6989 0 7.5C0 7.3011 0.065846 7.11034 0.183052 6.9697C0.300259 6.82905 0.459225 6.75004 0.62498 6.75004H12.866L8.30754 1.28097C8.19027 1.14025 8.12439 0.949387 8.12439 0.750375C8.12439 0.551363 8.19027 0.360502 8.30754 0.21978C8.42481 0.0790571 8.58387 0 8.74971 0C8.91556 0 9.07462 0.0790571 9.19189 0.21978L14.8167 6.9694C14.8748 7.03905 14.9209 7.12177 14.9524 7.21281C14.9838 7.30385 15 7.40144 15 7.5C15 7.59856 14.9838 7.69615 14.9524 7.78719C14.9209 7.87823 14.8748 7.96094 14.8167 8.03059Z" fill="#0023D7"/>
</svg>
