<svg width="80" height="80" viewBox="0 0 80 80" fill="none" xmlns="http://www.w3.org/2000/svg">
<rect width="80" height="80" rx="10" fill="white"/>
<path d="M69.2316 34.2811C67.1667 33.0995 64.4293 32.9577 62.1243 33.6194C61.8361 31.1617 60.2034 29.0348 58.2824 27.5224L57.514 26.908L56.8417 27.6642C55.5451 29.1293 55.1609 31.5871 55.353 33.4776C55.4971 34.8482 55.9293 36.2662 56.7937 37.4005C56.1213 37.7786 55.401 38.2985 54.7287 38.5348C53.3841 39.0075 51.8954 39.4801 50.4546 39.4801H47.2371V32.8159H40.9941V21H33.7907V26.6716H21.785V32.8159H15.542V39.4328H10.1634L10.0673 40.1418C9.82723 43.1667 10.2114 46.097 11.508 48.8856L12.0843 50.0199C15.8781 56.3533 22.5053 59 29.7567 59C43.7795 59 55.353 52.8085 60.6355 39.811C64.1892 40 67.8389 38.9602 69.5678 35.6044L70 34.7538L69.2316 34.2811ZM22.7454 28.0896H27.5477V33.2885H22.7454V28.0896ZM29.0364 48.9801C29.0364 49.7836 28.3641 50.4453 27.5477 50.4453C26.7313 50.4453 26.059 49.7836 26.059 48.9801C26.059 48.1766 26.7313 47.5149 27.5477 47.5149C28.3641 47.5622 29.0364 48.1766 29.0364 48.9801ZM22.7454 34.2338H27.5477V39.4328H22.7454V34.2338ZM16.5024 34.2338H21.785V39.4328H16.5024V34.2338ZM29.8048 57.9602C22.2171 57.9129 18.1352 55.408 14.7736 52.0995C15.7821 52.1467 16.7425 52.1941 17.6069 52.1941C18.3753 52.1941 19.1437 52.1941 19.864 52.1467C21.7369 52.0523 23.3697 51.8159 24.7143 51.4378C25.8189 53.9428 27.8358 56.2587 31.4375 57.9602H29.8048ZM33.7907 39.4328H28.5081V34.2338H33.7907V39.4328ZM33.7907 33.2885H28.5081V28.0896H33.7907V33.2885ZM40.0337 39.4328H34.7511V34.2338H40.0337V39.4328ZM40.0337 33.2885H34.7511V28.0896H40.0337V33.2885ZM40.0337 27.1443H34.7511V21.9453H40.0337V27.1443ZM46.2767 39.4328H40.9941V34.2338H46.2767V39.4328ZM27.9319 48.0348C27.8358 47.9875 27.6917 47.9403 27.5477 47.9403C26.9715 47.9403 26.4912 48.4129 26.4912 48.9801C26.4912 49.5472 26.9715 50.0199 27.5477 50.0199C28.124 50.0199 28.6042 49.5472 28.6042 48.9801C28.6042 48.8383 28.5562 48.6965 28.5081 48.602C28.4121 48.7438 28.316 48.8383 28.124 48.8383C27.8838 48.8383 27.6917 48.6492 27.6917 48.4129C27.7398 48.2239 27.8358 48.0821 27.9319 48.0348Z" fill="#019BC6"/>
</svg>
