<svg width="80" height="80" viewBox="0 0 80 80" fill="none" xmlns="http://www.w3.org/2000/svg">
<rect width="80" height="80" rx="10" fill="white"/>
<path d="M54.4236 53.7678C54.8068 50.5682 54.6921 50.0986 57.0677 50.6172L57.6706 50.6701C59.4975 50.7533 61.8872 50.3753 63.2913 49.721C66.3138 48.3139 68.1055 45.9656 65.126 46.5822C58.3282 47.9892 57.861 45.68 57.861 45.68C65.0391 34.9962 68.0396 21.4335 65.4492 18.1135C58.3849 9.05854 46.1568 13.3404 45.9522 13.4511L45.8868 13.4633C44.5437 13.1837 43.0406 13.0167 41.3518 12.9893C38.2757 12.9383 35.9416 13.7983 34.1708 15.1451C34.1708 15.1451 12.3564 6.12935 13.3713 26.4833C13.5871 30.8132 19.5579 59.2466 26.6798 50.6583C29.2829 47.5181 31.7982 44.8626 31.7982 44.8626C33.047 45.6947 34.5429 46.1198 36.111 45.967L36.2325 45.8632C36.1945 46.253 36.211 46.6346 36.2809 47.0861C34.4467 49.1426 34.9857 49.5035 31.3178 50.2607C27.6064 51.0276 29.7868 52.3935 31.2099 52.7505C32.9357 53.1835 36.9277 53.7966 39.6256 50.0089L39.5182 50.4409C40.2378 51.0188 40.1894 54.5925 40.291 57.1456C40.393 59.6991 40.5634 62.0817 41.0824 63.4868C41.6013 64.8914 42.2135 68.5097 47.0341 67.4734C51.0627 66.6095 54.1428 65.3631 54.4236 53.7678Z" fill="black"/>
<path d="M45.4645 70C43.3325 70 41.944 69.1728 41.1009 68.374C39.8282 67.1693 39.3234 65.6172 39.0216 64.6901L38.8913 64.3032C38.284 62.6587 38.0779 60.2907 37.9559 57.2416C37.9373 56.7836 37.9247 56.312 37.9105 55.812C37.9002 55.4461 37.8875 54.9872 37.869 54.5073C37.1009 54.8747 36.2856 55.1331 35.4465 55.2752C33.9433 55.5328 32.3274 55.4496 30.6426 55.0269C29.4538 54.7286 28.2186 54.1106 27.5146 53.1561C25.4627 54.9588 23.5055 54.7144 22.4393 54.3574C20.5582 53.7281 18.8749 51.9596 17.2926 48.952C16.1653 46.8094 15.0752 44.0178 14.0519 40.6542C12.2699 34.7968 11.1378 28.6275 11.0372 26.6019C10.7209 20.262 12.4223 15.7279 16.0931 13.1269C21.8837 9.02377 30.6572 11.4368 33.8559 12.5323C36.005 11.233 38.5334 10.6008 41.3904 10.6463C42.9248 10.6713 44.3861 10.8065 45.7433 11.0494C47.1591 10.6027 49.9555 9.96164 53.1567 10.0018C59.0547 10.0723 63.9421 12.3781 67.2897 16.6697C69.679 19.7316 68.4975 26.1616 67.5812 29.722C66.2913 34.7302 64.0314 40.0567 61.2555 44.6937C62.0093 44.6991 63.1014 44.6085 64.6539 44.2867C67.7169 43.6525 68.6128 45.3 68.8559 46.0376C69.8299 48.9966 65.5961 51.2328 64.2755 51.8479C62.5834 52.6359 59.8246 53.1159 57.5652 53.0121L57.4665 53.0057L56.8729 52.9533L56.8143 53.4499L56.7577 53.9352C56.6058 59.8118 55.7691 63.5334 54.0471 65.9924C52.2423 68.5704 49.7339 69.2928 47.5242 69.7679C46.7704 69.9295 46.0855 70 45.4645 70ZM40.9779 48.6122C42.3541 49.717 42.4747 51.796 42.5826 55.6812C42.5963 56.1661 42.609 56.625 42.6261 57.0535C42.6778 58.3513 42.7994 61.3902 43.2739 62.6743C43.3408 62.856 43.4009 63.0402 43.4643 63.2356C43.993 64.8596 44.2581 65.674 46.5444 65.1838C48.4635 64.771 49.4502 64.4007 50.2225 63.2978C51.3449 61.6943 51.9728 58.4689 52.088 53.7109L54.4236 53.7678L52.1041 53.4886L52.1724 52.9078C52.3946 50.9928 52.5547 49.6098 53.8304 48.6949C54.8542 47.9613 56.0205 48.0323 56.9495 48.2003C55.9287 47.4265 55.6465 46.519 55.5713 46.1468L55.3765 45.1844L55.9238 44.37C59.0762 39.6782 61.6754 33.9118 63.056 28.5491C64.4747 23.0389 64.0422 20.1127 63.6096 19.5593C57.8835 12.2194 47.9539 15.25 46.9169 15.5938L46.7416 15.6888L45.8629 15.8528L45.4127 15.7593C44.1717 15.5007 42.793 15.3577 41.3152 15.3337C38.9933 15.2945 37.1201 15.845 35.5842 17.014L34.5184 17.8246L33.2818 17.3138C30.6396 16.2299 22.8791 14.051 18.7841 16.9606C16.511 18.5758 15.4755 21.7406 15.7059 26.3673C15.7821 27.8948 16.8166 33.6773 18.5234 39.2854C20.8819 47.0357 23.0251 49.6103 23.92 49.9095C24.0762 49.9624 24.4814 49.6465 24.8847 49.1607C26.5661 47.1387 28.3071 45.1674 30.1056 43.2494L31.4579 41.8218L33.0929 42.9115C33.752 43.3508 34.4789 43.6001 35.2254 43.6471L39.1247 40.3109L38.5598 46.0939C38.5471 46.2237 38.5408 46.4005 38.5915 46.7286L38.7614 47.8246L38.0242 48.6513L37.9393 48.7473L40.0815 49.7391L40.9779 48.6122Z" fill="black"/>
<path d="M65.126 46.5822C58.3282 47.9892 57.861 45.68 57.861 45.68C65.0391 34.9957 68.0386 21.4325 65.4492 18.1135C58.3849 9.05903 46.1563 13.3409 45.9522 13.4521L45.8868 13.4633C44.5437 13.1837 43.0401 13.0177 41.3504 12.9902C38.2742 12.9398 35.9411 13.7993 34.1704 15.1461C34.1704 15.1461 12.3554 6.13082 13.3699 26.4843C13.5857 30.8147 19.5564 59.248 26.6783 50.6598C29.2815 47.5195 31.7962 44.8641 31.7962 44.8641C33.0455 45.6962 34.5409 46.1213 36.1085 45.9685L36.2306 45.8647C36.1925 46.2545 36.2101 46.636 36.2794 47.0876C34.4447 49.144 34.9837 49.505 31.3158 50.2621C27.6045 51.0291 29.7848 52.395 31.2084 52.752C32.9337 53.185 36.9263 53.7981 39.6236 50.0104L39.5157 50.4424C40.2348 51.0203 40.7396 54.1997 40.6552 57.0819C40.5702 59.9641 40.5136 61.9431 41.0804 63.4888C41.6467 65.0344 42.2111 68.5117 47.0326 67.4753C51.0613 66.6095 53.1488 64.365 53.4398 60.6213C53.6458 57.9595 54.1121 58.3533 54.1419 55.9736L54.5163 54.8472C54.9479 51.2392 54.5852 50.076 57.0677 50.6172L57.6706 50.6701C59.4975 50.7533 61.8872 50.3753 63.2913 49.721C66.3133 48.3149 68.1055 45.9656 65.126 46.5822Z" fill="#336791"/>
<path d="M45.7081 68.5557C41.6892 68.5557 40.416 65.3631 39.895 64.0574C39.1325 62.1439 38.9679 54.7184 39.1378 48.6288C39.1404 48.5261 39.1631 48.4249 39.2048 48.3311C39.2465 48.2373 39.3062 48.1526 39.3807 48.0821C39.4551 48.0115 39.5427 47.9564 39.6384 47.92C39.7342 47.8835 39.8361 47.8664 39.9385 47.8697C40.0407 47.8725 40.1414 47.8955 40.2348 47.9373C40.3282 47.9792 40.4125 48.0391 40.4827 48.1137C40.553 48.1882 40.608 48.276 40.6444 48.3718C40.6809 48.4677 40.6981 48.5698 40.6952 48.6724C40.4994 55.6959 40.7772 62.0607 41.3416 63.477C42.2223 65.6853 43.5581 67.6169 47.3343 66.8054C50.9192 66.034 52.2618 64.6706 52.8598 61.1928C53.3187 58.5242 54.2263 50.9321 54.3381 49.434C54.3456 49.3316 54.3731 49.2317 54.4192 49.14C54.4652 49.0483 54.5288 48.9667 54.6064 48.8997C54.6839 48.8327 54.7739 48.7818 54.8711 48.7497C54.9683 48.7177 55.0709 48.7052 55.173 48.7131C55.3789 48.7287 55.5702 48.8257 55.7049 48.9827C55.8397 49.1397 55.9068 49.3439 55.8916 49.5505C55.7749 51.1104 54.8717 58.6878 54.3952 61.4588C53.6893 65.5663 51.8639 67.4293 47.6609 68.3334C46.9467 68.4867 46.2979 68.5552 45.7081 68.5557ZM23.9166 52.9616C23.5653 52.9604 23.2165 52.9025 22.8835 52.7902C20.2731 51.9165 17.7867 47.6518 15.4931 40.1131C13.7473 34.3747 12.641 28.385 12.5438 26.4383C12.2563 20.6671 13.7375 16.584 16.9474 14.3033C23.2975 9.78974 33.98 14.0878 34.4315 14.2729C34.6228 14.3513 34.7753 14.5027 34.8553 14.6938C34.9353 14.885 34.9364 15.1002 34.8582 15.2921C34.7801 15.484 34.6292 15.6369 34.4386 15.7172C34.2481 15.7974 34.0336 15.7985 33.8423 15.7201C33.7393 15.678 23.4957 11.5612 17.8448 15.5805C15.1001 17.5327 13.84 21.1598 14.0992 26.3604C14.1808 28.0006 15.2143 33.8462 16.9826 39.6566C19.0301 46.3867 21.3603 50.6334 23.3761 51.3077C23.6925 51.4135 24.6552 51.7353 26.0315 50.075C27.6364 48.1414 29.3015 46.2589 31.0244 44.4302C31.1685 44.286 31.3632 44.2041 31.5668 44.202C31.7704 44.2 31.9667 44.278 32.1137 44.4193C32.2607 44.5606 32.3467 44.754 32.3534 44.9582C32.36 45.1623 32.2867 45.3609 32.1492 45.5116C32.1257 45.536 29.7828 47.9931 27.2295 51.0746C26.0202 52.5336 24.8612 52.9616 23.9166 52.9616ZM57.8122 46.377C57.671 46.3768 57.5324 46.3381 57.4114 46.265C57.2904 46.192 57.1915 46.0873 57.1252 45.9622C57.0589 45.8371 57.0278 45.6963 57.0351 45.5548C57.0424 45.4133 57.0879 45.2765 57.1668 45.1589C64.423 34.3575 66.9699 21.3062 64.7886 18.5097C62.043 14.9904 58.1661 13.1524 53.265 13.0461C49.6362 12.9677 46.7519 13.8973 46.2803 14.0594L46.1617 14.1079C45.6876 14.2572 45.3239 13.9967 45.1867 13.6921C45.1085 13.5175 45.0966 13.3203 45.1534 13.1376C45.2101 12.9549 45.3316 12.7994 45.4948 12.7003C45.5172 12.6871 45.5885 12.6567 45.7042 12.6141C46.5053 12.3198 49.4336 11.4382 53.0605 11.4799C58.4835 11.5377 62.9632 13.6352 66.0145 17.5469C67.4581 19.3976 67.4616 23.6614 66.0238 29.2455C64.5582 34.9389 61.8003 41.0573 58.4581 46.0327C58.3087 46.2565 58.0626 46.377 57.8122 46.377ZM58.1832 51.3773C56.9442 51.3773 55.8335 51.202 55.1686 50.8023C54.4851 50.3914 54.3547 49.8331 54.3376 49.5368C54.1511 46.2506 55.9585 45.6786 56.8802 45.4175C56.7518 45.2226 56.5692 44.9934 56.3803 44.7569C55.8428 44.083 55.1066 43.1603 54.5393 41.7802C54.4504 41.5647 54.1721 41.0637 53.8499 40.4833C52.1026 37.3401 48.467 30.7995 50.8025 27.4501C51.8834 25.9 54.0359 25.2898 57.2073 25.6302C56.2743 22.7789 51.8317 13.8596 41.2898 13.6862C38.1194 13.6333 35.5193 14.6113 33.5655 16.5904C29.1911 21.0221 29.3493 29.0408 29.3518 29.1211C29.3545 29.2237 29.337 29.3258 29.3003 29.4216C29.2637 29.5174 29.2086 29.6051 29.1382 29.6795C29.0678 29.7539 28.9835 29.8138 28.89 29.8555C28.7966 29.8973 28.6958 29.9201 28.5936 29.9228C28.4913 29.9255 28.3895 29.908 28.294 29.8713C28.1985 29.8345 28.1112 29.7792 28.037 29.7086C27.9627 29.638 27.9031 29.5534 27.8615 29.4596C27.8199 29.3659 27.7971 29.2648 27.7944 29.1623C27.7846 28.8062 27.6216 20.3913 32.4587 15.4904C34.7225 13.1969 37.7025 12.0646 41.3157 12.1239C48.0598 12.2351 52.4009 15.6746 54.8546 18.5401C57.5295 21.6632 58.8408 25.1081 58.9487 26.258C59.0293 27.1132 58.4176 27.2841 58.294 27.3095L58.0128 27.3159C54.9005 26.8159 52.9038 27.1631 52.0782 28.3463C50.3016 30.8935 53.741 37.0805 55.2096 39.7227C55.5845 40.3966 55.855 40.8839 55.979 41.1846C56.4613 42.3581 57.0906 43.1466 57.5959 43.7803C58.0407 44.3376 58.4259 44.821 58.5635 45.3881C58.6275 45.5008 59.5351 46.8476 64.9205 45.7324C66.2703 45.4533 67.0798 45.6918 67.3273 46.4426C67.8141 47.9192 65.083 49.6416 63.5711 50.3459C62.2163 50.9777 60.054 51.3773 58.1832 51.3773ZM55.8906 49.408C56.0615 49.5809 56.9163 49.8791 58.6866 49.8027C60.2605 49.7352 61.9204 49.3918 62.9164 48.9281C64.1901 48.3345 65.0406 47.6709 65.4809 47.2178L65.2368 47.2629C61.7935 47.976 59.3578 47.881 57.9977 46.9803C57.9063 46.9197 57.8183 46.8542 57.7341 46.7839C57.5866 46.8422 57.4504 46.8804 57.3533 46.9078C56.5819 47.1248 55.7842 47.3496 55.8906 49.408ZM33.647 53.7741C32.7917 53.7741 31.8914 53.6571 30.9721 53.4264C30.0196 53.1874 28.4139 52.468 28.4383 51.2862C28.4662 49.9604 30.3882 49.5628 31.1117 49.4134C33.7256 48.8732 33.896 48.6567 34.7127 47.616C34.951 47.3129 35.2473 46.9353 35.6516 46.4827C36.2516 45.8088 36.9072 45.4675 37.6005 45.4675C38.0833 45.4675 38.4793 45.6315 38.7409 45.7408C39.5748 46.0875 40.2705 46.926 40.5566 47.9285C40.8148 48.833 40.6913 49.7038 40.2099 50.3802C38.6296 52.6002 36.36 53.7741 33.647 53.7741ZM30.1212 51.3533C30.356 51.5355 30.8266 51.7789 31.3505 51.9101C32.1467 52.11 32.9191 52.2113 33.6475 52.2113C35.8669 52.2113 37.6488 51.2896 38.943 49.4717C39.213 49.0926 39.132 48.6112 39.0597 48.358C38.9084 47.8276 38.5325 47.3452 38.1453 47.1841C37.9354 47.0969 37.7611 47.0303 37.601 47.0303C37.515 47.0303 37.2534 47.0303 36.813 47.5244C36.5091 47.8673 36.217 48.2204 35.9372 48.5833C34.9197 49.8792 34.4535 50.3189 31.4266 50.9444C30.688 51.0962 30.3091 51.2509 30.1212 51.3533ZM36.111 47.7487C35.925 47.7484 35.7453 47.6814 35.6043 47.5598C35.4632 47.4382 35.3702 47.27 35.342 47.0856C35.3227 46.9559 35.3096 46.8253 35.303 46.6943C33.3189 46.6571 31.4047 45.803 29.9513 44.2818C28.1137 42.3586 27.2774 39.6938 27.6572 36.9713C28.0697 34.0147 27.9155 31.4048 27.8325 30.0027C27.8095 29.6128 27.7929 29.3312 27.7939 29.1363C27.7954 28.889 27.8002 28.2332 29.9855 27.122C30.7627 26.7267 32.321 26.0372 34.0234 25.8604C36.8438 25.568 38.7029 26.8281 39.2594 29.4091C40.7616 36.3772 39.3785 39.4592 38.3684 41.7101C38.1805 42.1294 38.0028 42.5251 37.8607 42.9085L37.7352 43.2465C37.2016 44.6819 36.7403 45.922 36.8818 46.8481C36.8974 46.9495 36.8929 47.053 36.8685 47.1527C36.8442 47.2524 36.8005 47.3463 36.74 47.429C36.6794 47.5117 36.6033 47.5817 36.5158 47.6349C36.4283 47.688 36.3312 47.7234 36.2301 47.7389L36.111 47.7487ZM29.3566 29.3528L29.3869 29.9106C29.4728 31.3671 29.633 34.0774 29.1994 37.1883C28.8865 39.4338 29.57 41.6254 31.0756 43.2004C32.2654 44.4454 33.831 45.1325 35.4402 45.1325H35.4734C35.6535 44.3709 35.9528 43.5668 36.275 42.7004L36.3995 42.3644C36.5601 41.9315 36.7481 41.5123 36.9473 41.0686C37.9193 38.9019 39.1295 36.2049 37.7357 29.7397C37.4599 28.459 36.7905 27.718 35.6906 27.4736C33.4312 26.9731 30.0641 28.6779 29.3566 29.3528ZM34.0581 29.0212C34.019 29.2974 34.5624 30.035 35.2713 30.1334C35.9787 30.2329 36.584 29.6559 36.6226 29.3797C36.6612 29.1035 36.1183 28.7989 35.4094 28.6999C34.701 28.601 34.0957 28.745 34.0581 29.0212ZM35.4338 30.4052L35.2351 30.3915C34.7957 30.3303 34.3515 30.0526 34.0473 29.6481C33.9404 29.5061 33.7661 29.2308 33.8008 28.985C33.8501 28.6245 34.2885 28.4085 34.9725 28.4085C35.1253 28.4085 35.2844 28.4198 35.4446 28.4423C35.8185 28.4942 36.1656 28.6025 36.422 28.746C36.8662 28.9948 36.8989 29.2725 36.8789 29.416C36.8242 29.8141 36.193 30.4052 35.4338 30.4052ZM34.3163 29.0672C34.3383 29.2377 34.7591 29.7999 35.3069 29.8758L35.4343 29.8846C35.9401 29.8846 36.318 29.4855 36.3624 29.3547C36.3155 29.2656 35.9904 29.0442 35.3738 28.958C35.241 28.9389 35.1071 28.9293 34.973 28.9291C34.5765 28.9291 34.3661 29.0188 34.3163 29.0672ZM55.6045 28.4575C55.6431 28.7337 55.1002 29.4713 54.3918 29.5702C53.6839 29.6692 53.0781 29.0927 53.039 28.8165C53.0019 28.5403 53.5448 28.2352 54.2527 28.1367C54.9606 28.0373 55.5655 28.1818 55.6045 28.4575ZM54.2283 29.7113C53.5467 29.7113 52.9584 29.1794 52.9101 28.8341C52.854 28.4198 53.534 28.1049 54.2341 28.0074C54.3884 27.9859 54.5412 27.9751 54.6882 27.9751C55.2926 27.9751 55.6929 28.1529 55.7329 28.4399C55.7588 28.6255 55.6167 28.912 55.3721 29.1706C55.2105 29.3405 54.8712 29.6349 54.4089 29.699L54.2283 29.7113ZM54.6886 28.2357C54.5539 28.2357 54.4133 28.2459 54.2707 28.2655C53.5672 28.364 53.1474 28.647 53.1679 28.7989C53.1913 28.9659 53.6405 29.4512 54.2288 29.4512L54.3738 29.4409C54.758 29.3875 55.0465 29.1358 55.1842 28.9908C55.4004 28.7631 55.4864 28.5486 55.4761 28.4756C55.4625 28.3787 55.2027 28.2357 54.6886 28.2357ZM56.6244 44.3205C56.4833 44.3206 56.3448 44.2822 56.2237 44.2093C56.1027 44.1365 56.0037 44.0321 55.9373 43.9071C55.8708 43.7822 55.8396 43.6415 55.8467 43.5001C55.8539 43.3587 55.8993 43.222 55.978 43.1044C57.6369 40.619 57.3333 38.0845 57.0398 35.6333C56.9144 34.5892 56.7855 33.5093 56.8187 32.473C56.8529 31.4068 56.9881 30.5272 57.1184 29.6765C57.2732 28.6686 57.4197 27.7165 57.3591 26.5862C57.3536 26.4837 57.3683 26.3812 57.4023 26.2844C57.4363 26.1876 57.4889 26.0985 57.5572 26.0222C57.6255 25.9458 57.7082 25.8837 57.8004 25.8394C57.8927 25.7951 57.9927 25.7694 58.0949 25.7639C58.197 25.7584 58.2992 25.7731 58.3957 25.8072C58.4921 25.8413 58.581 25.8941 58.6571 25.9626C58.7332 26.0312 58.7951 26.1141 58.8393 26.2066C58.8835 26.2991 58.909 26.3995 58.9146 26.5019C58.9839 27.7939 58.8184 28.8713 58.6582 29.914C58.5347 30.7187 58.4068 31.5508 58.3761 32.5229C58.3463 33.4407 58.463 34.4153 58.5865 35.4467C58.8989 38.0532 59.2529 41.0073 57.2727 43.9738C57.2014 44.0806 57.1049 44.1681 56.9918 44.2286C56.8788 44.2891 56.7525 44.3206 56.6244 44.3205Z" fill="white"/>
</svg>
