<svg width="80" height="80" viewBox="0 0 80 80" fill="none" xmlns="http://www.w3.org/2000/svg">
<rect width="80" height="80" rx="10" fill="white"/>
<path d="M39.1503 10.0005C36.7187 10.0121 34.3966 10.2208 32.3511 10.586C26.3298 11.6584 25.235 13.8961 25.235 18.0293V23.4842H39.4615V25.3044H19.8936C15.7564 25.3044 12.1378 27.8029 11.0027 32.5622C9.69473 38.0114 9.63711 41.42 11.0027 47.1126C12.0168 51.3501 14.4311 54.3703 18.5625 54.3703H23.4545V47.8314C23.4545 43.1069 27.5167 38.9389 32.3453 38.9389H46.5603C50.5188 38.9389 53.6764 35.6636 53.6764 31.6637V18.0293C53.6764 14.1511 50.4209 11.2353 46.5603 10.586C44.1172 10.1744 41.5819 9.98892 39.1503 10.0005ZM31.4522 14.3888C32.9215 14.3888 34.12 15.6178 34.12 17.125C34.12 18.6322 32.9215 19.8437 31.4522 19.8437C29.9829 19.8437 28.7844 18.6264 28.7844 17.125C28.7844 15.6178 29.9771 14.3888 31.4522 14.3888Z" fill="url(#paint0_linear_117_26)"/>
<path d="M55.4511 31.6579C55.4511 36.5853 51.2967 40.7301 46.5603 40.7301H32.3511C28.4559 40.7301 25.235 44.0808 25.235 48.0053V61.6339C25.235 65.5121 28.5885 67.7961 32.3511 68.9091C36.857 70.2424 41.1728 70.4801 46.5603 68.9091C50.1443 67.8656 53.6764 65.7671 53.6764 61.6339V56.179H39.4672V54.3587H60.7926C64.9297 54.3587 66.4682 51.4603 67.9087 47.101C69.3953 42.6141 69.3319 38.307 67.9087 32.5506C66.8888 28.4058 64.9355 25.2929 60.7926 25.2929H55.4511V31.6579ZM47.4592 59.8195C48.9343 59.8195 50.127 61.0368 50.127 62.5382C50.127 64.0396 48.9343 65.2744 47.4592 65.2744C45.9841 65.2744 44.7914 64.0454 44.7914 62.5382C44.7914 61.031 45.9899 59.8195 47.4592 59.8195Z" fill="url(#paint1_linear_117_26)"/>
<defs>
<linearGradient id="paint0_linear_117_26" x1="8.37361" y1="15.1674" x2="40.9364" y2="43.0177" gradientUnits="userSpaceOnUse">
<stop stop-color="#5A9FD4"/>
<stop offset="1" stop-color="#306998"/>
</linearGradient>
<linearGradient id="paint1_linear_117_26" x1="53.2803" y1="60.187" x2="41.6158" y2="43.785" gradientUnits="userSpaceOnUse">
<stop stop-color="#FFD43B"/>
<stop offset="1" stop-color="#FFE873"/>
</linearGradient>
</defs>
</svg>
