<svg width="110" height="50" viewBox="0 0 110 50" fill="none" xmlns="http://www.w3.org/2000/svg">
<g clip-path="url(#clip0_88_735)">
<path d="M110 25C110 11.1929 98.8071 0 85 0C71.1929 0 60 11.1929 60 25C60 38.8071 71.1929 50 85 50C98.8071 50 110 38.8071 110 25Z" fill="white"/>
<path d="M99.5125 16.8499C100.225 14.5437 99.9438 12.0437 98.7313 9.9499C98.525 9.59365 98.1438 9.36865 97.7313 9.36865C95 9.36865 92.425 10.6499 90.7875 12.8437H87.3125C85.675 10.6562 83.1 9.36865 80.3688 9.36865C79.9563 9.36865 79.575 9.5874 79.3688 9.9499C78.1563 12.0374 77.875 14.5437 78.5875 16.8499C77.875 18.0999 77.4875 19.5062 77.475 20.9499V22.1062C77.475 26.1562 80.4688 29.5812 84.4813 30.1312C83.6875 31.1437 83.2625 32.3937 83.2625 33.6812V34.8374H79.7875C77.8688 34.8374 76.3125 33.2812 76.3125 31.3624C76.3125 28.1687 73.7188 25.5749 70.525 25.5749C69.8875 25.5749 69.3688 26.0937 69.3688 26.7312C69.3688 27.3687 69.8875 27.8874 70.525 27.8874C72.4438 27.8874 74 29.4437 74 31.3624C74 34.5562 76.5938 37.1499 79.7875 37.1499H83.2625V39.4624C83.2625 40.0999 83.7813 40.6187 84.4188 40.6187C85.0563 40.6187 85.575 40.0999 85.575 39.4624V33.6749C85.575 31.7562 87.1313 30.1999 89.05 30.1999C90.9688 30.1999 92.525 31.7562 92.525 33.6749V39.4624C92.525 40.0999 93.0438 40.6187 93.6813 40.6187C94.3188 40.6187 94.8375 40.0999 94.8375 39.4624V33.6749C94.8375 32.3874 94.4063 31.1374 93.6188 30.1249C97.6313 29.5749 100.619 26.1499 100.625 22.0999V20.9437C100.613 19.5062 100.225 18.0937 99.5125 16.8437V16.8499ZM98.3125 22.1062C98.3125 25.2999 95.7188 27.8937 92.525 27.8937H85.5813C82.3875 27.8937 79.7938 25.2999 79.7938 22.1062V20.9499C79.8063 19.7937 80.1563 18.6624 80.7938 17.6999C81.0375 17.3812 81.0938 16.9624 80.95 16.5874C80.3438 15.0187 80.3813 13.2687 81.0625 11.7312C82.9813 11.9374 84.7 13.0062 85.7375 14.6312C85.95 14.9624 86.3125 15.1624 86.7063 15.1624H91.3875C91.7813 15.1624 92.15 14.9624 92.3625 14.6312C93.4 13.0062 95.1188 11.9374 97.0375 11.7312C97.7188 13.2687 97.7563 15.0187 97.15 16.5874C97.0063 16.9562 97.0625 17.3749 97.2938 17.6937C97.9375 18.6624 98.2875 19.7937 98.3063 20.9499V22.1062H98.3125Z" fill="#0023D7"/>
</g>
<g clip-path="url(#clip1_88_735)">
<path d="M50 25C50 11.1929 38.8071 0 25 0C11.1929 0 0 11.1929 0 25C0 38.8071 11.1929 50 25 50C38.8071 50 50 38.8071 50 25Z" fill="white"/>
<path d="M17.1312 21.2938V36.1063C17.1312 37.1313 16.3 37.9563 15.2812 37.9563C14.2625 37.9563 13.4312 37.1251 13.4312 36.1063V21.2938C13.4312 20.2688 14.2625 19.4438 15.2812 19.4438C16.3 19.4438 17.1312 20.2751 17.1312 21.2938ZM37.5 27.7751V36.1063C37.5 37.1313 36.6687 37.9563 35.65 37.9563C34.6312 37.9563 33.8 37.1251 33.8 36.1063V27.7751C33.8 25.2188 31.725 23.1438 29.1687 23.1438C26.6125 23.1438 24.5375 25.2188 24.5375 27.7751V36.1063C24.5375 37.1313 23.7062 37.9563 22.6875 37.9563C21.6687 37.9563 20.8375 37.1251 20.8375 36.1063V21.2938C20.8375 20.2688 21.675 19.4438 22.7 19.4501C23.5562 19.4501 24.3 20.0438 24.4937 20.8813C28.3 18.3001 33.4875 19.2876 36.0687 23.1001C37.0062 24.4813 37.5062 26.1063 37.5062 27.7751H37.5ZM18.0562 14.8126C18.0562 16.3438 16.8125 17.5876 15.2812 17.5876C13.75 17.5876 12.5062 16.3438 12.5062 14.8126C12.5062 13.2813 13.75 12.0376 15.2812 12.0376C16.8125 12.0376 18.0562 13.2813 18.0562 14.8126Z" fill="#0023D7"/>
</g>
<defs>
<clipPath id="clip0_88_735">
<rect width="50" height="50" fill="white" transform="translate(60)"/>
</clipPath>
<clipPath id="clip1_88_735">
<rect width="50" height="50" fill="white"/>
</clipPath>
</defs>
</svg>
