<svg width="80" height="80" viewBox="0 0 80 80" fill="none" xmlns="http://www.w3.org/2000/svg">
<rect width="80" height="80" rx="10" fill="white"/>
<path d="M40 22C31.9998 22 27.0016 25.9986 25 33.9992C27.9991 30.0001 31.5002 28.5005 35.4991 29.5004C37.7823 30.0695 39.4141 31.7252 41.2211 33.56C44.162 36.5447 47.5661 40 55 40C62.9997 40 67.9984 36.0009 70 27.9984C67.0005 31.9999 63.4998 33.4995 59.5005 32.4996C57.2177 31.93 55.5878 30.2748 53.7784 28.44C50.8394 25.4553 47.4362 22 40 22ZM25 40C17.0003 40 12.0016 43.9991 10 52.0016C12.9991 48.0001 16.4997 46.5005 20.4991 47.5004C22.7823 48.07 24.4141 49.7252 26.2211 51.56C29.162 54.5447 32.5661 58 40 58C47.9997 58 52.9984 54.0014 55 46.0008C52.0005 49.9999 48.4998 51.4995 44.5005 50.4996C42.2177 49.9305 40.5878 48.2748 38.7784 46.44C35.8394 43.4553 32.4363 40 25 40Z" fill="#38BDF8"/>
</svg>
