<svg width="80" height="80" viewBox="0 0 80 80" fill="none" xmlns="http://www.w3.org/2000/svg">
<rect width="80" height="80" rx="10" fill="white"/>
<path d="M70 10V70H10V10H70ZM54.9842 37.3968C49.7815 37.6803 46.5783 41.8308 47.7617 46.9758C48.8913 51.8875 54.1788 52.762 57.8515 54.886C58.7425 55.4012 59.5563 56.0275 59.6485 57.139C59.9103 60.298 55.6758 60.6917 53.5015 59.7618C52.201 59.2052 51.205 57.91 50.3883 56.8083L45.9333 59.476C45.8695 59.671 46.0555 59.8983 46.1493 60.064C50.8248 68.3568 67.615 66.6363 65.089 55.2993C64.0683 50.7183 59.5638 49.516 55.8738 47.7145C54.775 47.1782 53.3155 46.5093 53.1318 45.1315C52.711 41.9718 56.7122 41.5 58.5235 43.5655C58.7267 43.7973 59.1588 44.6065 59.458 44.578C60.871 43.7088 62.2938 42.8238 63.592 41.7985C63.6333 41.7468 63.6123 41.704 63.5973 41.6493C63.4998 41.293 62.1625 39.748 61.8273 39.4368C59.965 37.7073 57.463 37.2625 54.9858 37.3975L54.9842 37.3968ZM23.2 42.7H31V64.7875L31.1125 64.9H36.625V42.7H44.425L44.3463 37.7537C44.0028 37.7935 43.6765 37.6878 43.3405 37.6713C37.5738 37.3863 31.5745 37.8955 25.783 37.6713L23.2735 37.7493L23.2 42.7Z" fill="#007ACC"/>
<path d="M54.9842 37.3968C57.4615 37.2618 59.9635 37.7065 61.8258 39.436C62.161 39.7473 63.499 41.2923 63.5958 41.6485C63.6108 41.7033 63.6318 41.746 63.5905 41.7978C62.2923 42.8237 60.8695 43.7088 59.4565 44.5773C59.1572 44.6058 58.7253 43.7957 58.522 43.5648C56.7108 41.5 52.7095 41.971 53.1303 45.1308C53.314 46.5093 54.7735 47.1775 55.8723 47.7138C59.5623 49.516 64.0668 50.7175 65.0875 55.2985C67.6143 66.6348 50.824 68.3553 46.1478 60.0633C46.0548 59.8975 45.868 59.6702 45.9318 59.4753L50.3867 56.8075C51.2035 57.9092 52.1995 59.2045 53.5 59.761C55.6743 60.691 59.9088 60.2973 59.647 57.1383C59.5548 56.0268 58.741 55.4005 57.85 54.8853C54.1772 52.7612 48.8898 51.8868 47.7603 46.975C46.5768 41.83 49.78 37.6795 54.9828 37.396L54.9842 37.3968Z" fill="white"/>
<path d="M23.2 42.7L23.2735 37.7493L25.783 37.6713C31.5745 37.8955 37.5738 37.3863 43.3405 37.6713C43.6765 37.6878 44.0028 37.7935 44.3463 37.7537L44.425 42.7H36.625V64.9H31.1125L31 64.7875V42.7H23.2Z" fill="white"/>
</svg>
